<svg xmlns="http://www.w3.org/2000/svg" xml:space="preserve" style="enable-background:new 0 0 256 256" height="256" width="256" y="0" x="0" id="Layer_1" version="1.1"><style id="style2">.st1{fill:url(#SVGID_00000026860454425773202980000004635543468919255211_)}.st2{fill:url(#SVGID_00000143615979175705530000000013534657918512554126_)}</style><linearGradient y2="23.706" x2="55.512" y1="232.294" x1="200.488" gradientUnits="userSpaceOnUse" id="SVGID_1_"><stop id="stop4" style="stop-color:#1a1a1a" offset="0"/><stop id="stop6" style="stop-color:#707171" offset="1"/></linearGradient><circle id="circle9" style="fill:url(#SVGID_1_)" r="127" cy="128" cx="128"/><linearGradient y2="48.901" x2="81.213" y1="192.901" x1="181.298" gradientUnits="userSpaceOnUse" id="SVGID_00000152229639659988279760000004827430606720509569_"><stop id="stop11" style="stop-color:#979696" offset="0"/><stop id="stop13" style="stop-color:#cacaca" offset="1"/></linearGradient><circle id="circle16" r="87.8" cy="116.2" cx="128" style="fill:url(#SVGID_00000152229639659988279760000004827430606720509569_)"/><linearGradient y2="158.999" x2="153.485" y1="97.042" x1="104.804" gradientUnits="userSpaceOnUse" id="SVGID_00000042708123218752578100000017224159839960021148_"><stop id="stop18" style="stop-color:#9a9a9a" offset="0"/><stop id="stop20" style="stop-color:#c4c4c4" offset="1"/></linearGradient><circle id="circle23" r="37.2" cy="127.1" cx="128.4" style="fill:url(#SVGID_00000042708123218752578100000017224159839960021148_)"/><circle id="circle25" style="fill:#30302f" r="32.1" cy="127.1" cx="128.4"/><circle id="circle27" r="16.8" cy="127.1" cx="128.4"/><circle id="circle29" style="fill:#e6e6e6" r="7.3" cy="127.1" cx="128.4"/><path id="path31" d="m77.6 128.7 7-8.6" style="fill:#f28820"/><path id="path33" d="m84.6 120.1-.7.3-19.4 7.8-1.4.5h14.5z" style="fill:#8b8b8b"/><path id="path35" d="m63.1 128.7 1.4.5 19.4 7.8.7.3-7-8.6z" style="fill:#d7d6d5"/><path id="path37" d="M84.6 121v-.9l-7 8.6 7 8.6v-.9z" style="fill:#b9b8b9"/><path id="path39" d="m65.8 128.7 17.7 7.1v-14.2z" style="fill:#cbcbca"/></svg>