<?xml version="1.0" encoding="utf-8"?>
<!-- Generator: Adobe Illustrator 26.3.1, SVG Export Plug-In . SVG Version: 6.00 Build 0)  -->
<svg version="1.1" id="Layer_1" xmlns="http://www.w3.org/2000/svg" xmlns:xlink="http://www.w3.org/1999/xlink" x="0px" y="0px"
	 width="256px" height="256px" viewBox="0 0 256 256" style="enable-background:new 0 0 256 256;" xml:space="preserve">
<style type="text/css">
	.st0{fill:url(#SVGID_1_);}
	.st1{fill:url(#SVGID_00000026860454425773202980000004635543468919255211_);}
	.st2{fill:url(#SVGID_00000143615979175705530000000013534657918512554126_);}
	.st3{fill:#30302F;}
	.st4{fill:#E6E6E6;}
	.st5{fill:#F28820;}
	.st6{fill:#8B8B8B;}
	.st7{fill:#D7D6D5;}
	.st8{fill:#B9B8B9;}
	.st9{fill:#CBCBCA;}
</style>
<g>
	<linearGradient id="SVGID_1_" gradientUnits="userSpaceOnUse" x1="200.4883" y1="232.2944" x2="55.5117" y2="23.7056">
		<stop  offset="0" style="stop-color:#1A1A1A"/>
		<stop  offset="1" style="stop-color:#707171"/>
	</linearGradient>
	<circle class="st0" cx="128" cy="128" r="127"/>
	
		<linearGradient id="SVGID_00000152229639659988279760000004827430606720509569_" gradientUnits="userSpaceOnUse" x1="181.2977" y1="192.9014" x2="81.2126" y2="48.9014">
		<stop  offset="0" style="stop-color:#979696"/>
		<stop  offset="1" style="stop-color:#CACACA"/>
	</linearGradient>
	<circle style="fill:url(#SVGID_00000152229639659988279760000004827430606720509569_);" cx="128" cy="116.2" r="87.8"/>
	
		<linearGradient id="SVGID_00000042708123218752578100000017224159839960021148_" gradientUnits="userSpaceOnUse" x1="104.8043" y1="97.0417" x2="153.4851" y2="158.9991">
		<stop  offset="0" style="stop-color:#9A9A9A"/>
		<stop  offset="1" style="stop-color:#C4C4C4"/>
	</linearGradient>
	<circle style="fill:url(#SVGID_00000042708123218752578100000017224159839960021148_);" cx="128.4" cy="127.1" r="37.2"/>
	<circle class="st3" cx="128.4" cy="127.1" r="32.1"/>
	<circle cx="128.4" cy="127.1" r="16.8"/>
	<circle class="st4" cx="128.4" cy="127.1" r="7.3"/>
	<g>
		<line class="st5" x1="77.6" y1="128.7" x2="84.6" y2="120.1"/>
		<g>
			<polygon class="st6" points="84.6,120.1 84.6,120.1 83.9,120.4 64.5,128.2 63.1,128.7 77.6,128.7 			"/>
			<polygon class="st7" points="63.1,128.7 64.5,129.2 83.9,137 84.6,137.3 84.6,137.3 77.6,128.7 			"/>
			<polygon class="st8" points="84.6,121 84.6,120.1 77.6,128.7 84.6,137.3 84.6,136.4 			"/>
		</g>
		<polygon class="st9" points="65.8,128.7 83.5,135.8 83.5,121.6 		"/>
	</g>
</g>
</svg>
