<svg xmlns="http://www.w3.org/2000/svg" width="40" height="40"><path d="M31.596 9.683c0-1.494-.265-2.396-.795-2.705-.518-.322-1.452-.483-2.801-.483V3.539l1.608-.039c1.904 0 3.26.444 4.067 1.333.819.889 1.229 2.3 1.229 4.231v6.164c0 1.25.192 2.106.578 2.57.398.463.904.766 1.518.908v2.801c-1.398.31-2.096 1.385-2.096 3.227v6.472c0 1.88-.428 3.233-1.284 4.057-.843.825-2.21 1.237-4.102 1.237-.337 0-.843-.013-1.518-.039v-2.956c1.518 0 2.494-.206 2.928-.618.445-.412.668-1.243.668-2.492zM18 25v5h-5v-5zm9 0v5h-5v-5ZM8.404 30.317c0 1.494.265 2.396.795 2.705.53.322 1.464.483 2.801.483v2.956l-1.627.039c-1.843 0-3.186-.425-4.03-1.275-.843-.85-1.265-2.28-1.265-4.29v-6.163c0-1.262-.198-2.119-.596-2.57A2.753 2.753 0 0 0 3 21.295v-2.801c1.386-.31 2.078-1.385 2.078-3.227V8.794c0-1.88.422-3.233 1.265-4.057C7.2 3.912 8.578 3.5 10.482 3.5c.325 0 .831.013 1.518.039v2.956c-1.518 0-2.5.206-2.946.618-.434.412-.65 1.243-.65 2.492z"/></svg>