<svg xmlns="http://www.w3.org/2000/svg" width="40" height="40"><path d="M15.715 35.424a16.016 16 0 004.273.576A16.016 16 0 0036 20.004 16.016 16 0 0019.988 4a16.016 16 0 00-4.27.585 16.016 16 0 01.303.084 16.016 16 0 01.331.105 16.016 16 0 01.331.109 16.016 16 0 01.327.12 16.016 16 0 01.323.122 16.016 16 0 01.322.129 16.016 16 0 01.323.14 16.016 16 0 01.315.146 16.016 16 0 01.315.15 16.016 16 0 01.307.16 16.016 16 0 01.306.166 16.016 16 0 01.299.169 16.016 16 0 01.298.181 16.016 16 0 01.299.186 16.016 16 0 01.29.19 16.016 16 0 01.283.197 16.016 16 0 01.283.201 16.016 16 0 01.278.214 16.016 16 0 01.274.214 16.016 16 0 01.267.221 16.016 16 0 01.262.23 16.016 16 0 01.258.23 16.016 16 0 01.25.242 16.016 16 0 01.25.242 16.016 16 0 01.243.25 16.016 16 0 01.238.254 16.016 16 0 01.23.258 16.016 16 0 01.226.266 16.016 16 0 01.218.266 16.016 16 0 01.214.278 16.016 16 0 01.21.278 16.016 16 0 01.201.282 16.016 16 0 01.194.282 16.016 16 0 01.19.295 16.016 16 0 01.181.298 16.016 16 0 01.178.298 16.016 16 0 01.17.303 16.016 16 0 01.16.306 16.016 16 0 01.162.31 16.016 16 0 01.145.315 16.016 16 0 01.146.318 16.016 16 0 01.137.319 16.016 16 0 01.129.322 16.016 16 0 01.12.323 16.016 16 0 01.114.33 16.016 16 0 01.109.33 16.016 16 0 01.1.331 16.016 16 0 01.094.34 16.016 16 0 01.084.334 16.016 16 0 01.081.338 16.016 16 0 01.069.339 16.016 16 0 01.064.343 16.016 16 0 01.057.342 16.016 16 0 01.048.343 16.016 16 0 01.04.347 16.016 16 0 01.037.346 16.016 16 0 01.024.343 16.016 16 0 01.02.35 16.016 16 0 01.012.343 16.016 16 0 010 .351 16.016 16 0 010 .121 16.016 16 0 010 .347 16.016 16 0 01-.016.346 16.016 16 0 01-.024.347 16.016 16 0 01-.028.347 16.016 16 0 01-.04.346 16.016 16 0 01-.041.343 16.016 16 0 01-.053.343 16.016 16 0 01-.056.342 16.016 16 0 01-.069.343 16.016 16 0 01-.072.339 16.016 16 0 01-.08.338 16.016 16 0 01-.09.335 16.016 16 0 01-.097.334 16.016 16 0 01-.1.331 16.016 16 0 01-.11.33 16.016 16 0 01-.12.323 16.016 16 0 01-.122.33 16.016 16 0 01-.133.323 16.016 16 0 01-.137.315 16.016 16 0 01-.145.318 16.016 16 0 01-.154.31 16.016 16 0 01-.16.31 16.016 16 0 01-.162.307 16.016 16 0 01-.174.299 16.016 16 0 01-.177.298 16.016 16 0 01-.186.294 16.016 16 0 01-.19.29 16.016 16 0 01-.201.287 16.016 16 0 01-.202.282 16.016 16 0 01-.21.274 16.016 16 0 01-.214.274 16.016 16 0 01-.226.266 16.016 16 0 01-.226.262 16.016 16 0 01-.23.262 16.016 16 0 01-.242.25 16.016 16 0 01-.242.25 16.016 16 0 01-.25.242 16.016 16 0 01-.255.234 16.016 16 0 01-.258.234 16.016 16 0 01-.266.225 16.016 16 0 01-.27.218 16.016 16 0 01-.275.214 16.016 16 0 01-.282.205 16.016 16 0 01-.279.202 16.016 16 0 01-.286.197 16.016 16 0 01-.295.186 16.016 16 0 01-.294.185 16.016 16 0 01-.3.178 16.016 16 0 01-.302.169 16.016 16 0 01-.306.161 16.016 16 0 01-.311.157 16.016 16 0 01-.315.15 16.016 16 0 01-.319.145 16.016 16 0 01-.318.133 16.016 16 0 01-.323.129 16.016 16 0 01-.323.12 16.016 16 0 01-.331.117 16.016 16 0 01-.33.11 16.016 16 0 01-.336.096 16.016 16 0 01-.19.057z"/></svg>