<svg xmlns="http://www.w3.org/2000/svg" width="20" height="20"><path d="M10 3.535a5 5 0 0 0-4.969 4.442A5 5 0 0 1 8 7a5 5 0 0 1 2 .418A5 5 0 0 1 12 7a5 5 0 0 1 2.969.979A5 5 0 0 0 10 3.535m4.969 4.444a5 5 0 0 1 .031.556 5 5 0 0 1-2.031 4.022A5 5 0 0 1 10 16.582 5 5 0 0 0 12 17a5 5 0 0 0 5-5 5 5 0 0 0-2.031-4.021M10 16.582a5 5 0 0 1-2.969-4.025A5 5 0 0 1 5 8.535a5 5 0 0 1 .031-.558A5 5 0 0 0 3 12a5 5 0 0 0 5 5 5 5 0 0 0 2-.418m-2.969-4.025a5 5 0 0 0 2.969.978 5 5 0 0 0 2.969-.978A5 5 0 0 0 13 12a5 5 0 0 0-3-4.582A5 5 0 0 0 7 12a5 5 0 0 0 .031.557"/></svg>