<svg xmlns="http://www.w3.org/2000/svg" width="40" height="40"><path d="M19.96.004a1.002 1.002 0 00-.163.02 1.002 1.002 0 00-.083.022 1.002 1.002 0 00-.08.027 1.002 1.002 0 00-.075.037 1.002 1.002 0 00-.325.258 1.002 1.002 0 00-.053.068 1.002 1.002 0 00-.114.223 1.002 1.002 0 00-.045.162 1.002 1.002 0 00-.012.084 1.002 1.002 0 00-.007.087v5a1.002 1.002 0 00.004.086 1.002 1.002 0 00.174.47 1.002 1.002 0 00.049.064 1.002 1.002 0 00.057.064 1.002 1.002 0 00.128.113 1.002 1.002 0 00.14.087 1.002 1.002 0 00.076.03 1.002 1.002 0 00.083.03 1.002 1.002 0 00.08.02 1.002 1.002 0 00.083.015 1.002 1.002 0 00.495-.06 1.002 1.002 0 00.076-.038 1.002 1.002 0 00.329-.258 1.002 1.002 0 00.094-.136 1.002 1.002 0 00.038-.075 1.002 1.002 0 00.038-.076 1.002 1.002 0 00.023-.083 1.002 1.002 0 00.03-.167 1.002 1.002 0 00.004-.083V.988a1.002 1.002 0 000-.087 1.002 1.002 0 00-.038-.167 1.002 1.002 0 00-.023-.075 1.002 1.002 0 00-.068-.155 1.002 1.002 0 00-.045-.072 1.002 1.002 0 00-.11-.129 1.002 1.002 0 00-.06-.056 1.002 1.002 0 00-.209-.14 1.002 1.002 0 00-.238-.084 1.002 1.002 0 00-.083-.015 1.002 1.002 0 00-.166-.007zm-9.43 2.542a1.002 1.002 0 00-.082.004 1.002 1.002 0 00-.167.022 1.002 1.002 0 00-.442.235 1.002 1.002 0 00-.114.12 1.002 1.002 0 00-.049.069 1.002 1.002 0 00-.113.227 1.002 1.002 0 00-.038.163 1.002 1.002 0 00-.012.25 1.002 1.002 0 00.008.082 1.002 1.002 0 00.019.084 1.002 1.002 0 00.026.079 1.002 1.002 0 00.068.151 1.002 1.002 0 000 .004l2.504 4.334a1.002 1.002 0 00.046.068 1.002 1.002 0 00.049.068 1.002 1.002 0 00.057.06 1.002 1.002 0 00.064.058 1.002 1.002 0 00.136.098 1.002 1.002 0 00.151.072 1.002 1.002 0 00.163.045 1.002 1.002 0 00.083.015 1.002 1.002 0 00.416-.045 1.002 1.002 0 00.076-.03 1.002 1.002 0 00.287-.178 1.002 1.002 0 00.114-.121 1.002 1.002 0 00.049-.068 1.002 1.002 0 00.045-.076 1.002 1.002 0 00.068-.151 1.002 1.002 0 00.023-.08 1.002 1.002 0 00.015-.083 1.002 1.002 0 00.015-.083 1.002 1.002 0 000-.087 1.002 1.002 0 00-.015-.163 1.002 1.002 0 00-.113-.321l-2.497-4.33a1.002 1.002 0 00-.11-.14 1.002 1.002 0 00-.056-.06 1.002 1.002 0 00-.06-.058 1.002 1.002 0 00-.212-.136 1.002 1.002 0 00-.076-.034 1.002 1.002 0 00-.166-.041 1.002 1.002 0 00-.167-.023zm18.953 0a1.002 1.002 0 00-.48.14 1.002 1.002 0 00-.068.045 1.002 1.002 0 00-.238.235 1.002 1.002 0 00-.05.072l-2.503 4.326a1.002 1.002 0 00-.038.076 1.002 1.002 0 00-.034.075 1.002 1.002 0 00-.023.084 1.002 1.002 0 00-.019.083 1.002 1.002 0 00-.011.25 1.002 1.002 0 00.007.083 1.002 1.002 0 00.042.162 1.002 1.002 0 00.068.155 1.002 1.002 0 00.095.14 1.002 1.002 0 00.056.065 1.002 1.002 0 00.121.113 1.002 1.002 0 00.072.05 1.002 1.002 0 00.072.037 1.002 1.002 0 00.235.09 1.002 1.002 0 00.416.008 1.002 1.002 0 00.083-.019 1.002 1.002 0 00.159-.056 1.002 1.002 0 00.075-.042 1.002 1.002 0 00.137-.094 1.002 1.002 0 00.12-.118 1.002 1.002 0 00.099-.14l2.5-4.334a1.002 1.002 0 00.072-.151 1.002 1.002 0 00.023-.08 1.002 1.002 0 00.03-.166 1.002 1.002 0 000-.17 1.002 1.002 0 00-.117-.4 1.002 1.002 0 00-.152-.201 1.002 1.002 0 00-.12-.114 1.002 1.002 0 00-.073-.049 1.002 1.002 0 00-.147-.076 1.002 1.002 0 00-.076-.034 1.002 1.002 0 00-.083-.019 1.002 1.002 0 00-.083-.015 1.002 1.002 0 00-.083-.011 1.002 1.002 0 00-.087 0zm-9.478 6.448A11.006 11.005 0 009 20a11.006 11.005 0 0011.006 11.009 11.006 11.005 0 0011.006-11.006A11.006 11.005 0 0020.005 8.998zm-16.452.51a1.002 1.002 0 00-.083 0 1.002 1.002 0 00-.167.027 1.002 1.002 0 00-.076.027 1.002 1.002 0 00-.079.03 1.002 1.002 0 00-.076.038 1.002 1.002 0 00-.075.041 1.002 1.002 0 00-.19.163 1.002 1.002 0 00-.052.064 1.002 1.002 0 00-.05.076 1.002 1.002 0 00-.075.144 1.002 1.002 0 00-.034.08 1.002 1.002 0 00-.02.082 1.002 1.002 0 00-.026.167 1.002 1.002 0 000 .083 1.002 1.002 0 00.016.166 1.002 1.002 0 00.018.083 1.002 1.002 0 00.061.156 1.002 1.002 0 00.136.211 1.002 1.002 0 00.057.065 1.002 1.002 0 00.2.155l4.33 2.503a1.002 1.002 0 00.077.038 1.002 1.002 0 00.242.076 1.002 1.002 0 00.25.011 1.002 1.002 0 00.325-.083 1.002 1.002 0 00.34-.246 1.002 1.002 0 00.053-.064 1.002 1.002 0 00.155-.295 1.002 1.002 0 00.038-.167 1.002 1.002 0 00.011-.083 1.002 1.002 0 00-.004-.166 1.002 1.002 0 00-.06-.246 1.002 1.002 0 00-.117-.223 1.002 1.002 0 00-.106-.129 1.002 1.002 0 00-.129-.11 1.002 1.002 0 00-.072-.045L4.037 9.63a1.002 1.002 0 00-.151-.069 1.002 1.002 0 00-.246-.052 1.002 1.002 0 00-.083-.004zm32.905 0a1.002 1.002 0 00-.087 0 1.002 1.002 0 00-.084.012 1.002 1.002 0 00-.162.045 1.002 1.002 0 00-.076.03 1.002 1.002 0 00-.075.039l-4.339 2.503a1.002 1.002 0 00-.068.046 1.002 1.002 0 00-.068.049 1.002 1.002 0 00-.06.056 1.002 1.002 0 00-.19.277 1.002 1.002 0 00-.083.238 1.002 1.002 0 00-.015.253 1.002 1.002 0 00.023.163 1.002 1.002 0 00.132.31 1.002 1.002 0 00.046.072 1.002 1.002 0 00.053.064 1.002 1.002 0 00.06.06 1.002 1.002 0 00.064.054 1.002 1.002 0 00.069.049 1.002 1.002 0 00.071.045 1.002 1.002 0 00.076.038 1.002 1.002 0 00.076.03 1.002 1.002 0 00.083.023 1.002 1.002 0 00.08.015 1.002 1.002 0 00.086.015 1.002 1.002 0 00.167 0 1.002 1.002 0 00.083-.015 1.002 1.002 0 00.083-.015 1.002 1.002 0 00.235-.095l4.334-2.503a1.002 1.002 0 00.068-.046 1.002 1.002 0 00.068-.053 1.002 1.002 0 00.06-.056 1.002 1.002 0 00.057-.06 1.002 1.002 0 00.099-.137 1.002 1.002 0 00.072-.151 1.002 1.002 0 00.045-.167 1.002 1.002 0 00.011-.08 1.002 1.002 0 00.004-.17 1.002 1.002 0 00-.007-.083 1.002 1.002 0 00-.016-.083 1.002 1.002 0 00-.022-.08 1.002 1.002 0 00-.03-.079 1.002 1.002 0 00-.038-.075 1.002 1.002 0 00-.038-.076 1.002 1.002 0 00-.05-.068 1.002 1.002 0 00-.241-.227 1.002 1.002 0 00-.076-.045 1.002 1.002 0 00-.076-.038 1.002 1.002 0 00-.075-.03 1.002 1.002 0 00-.163-.038 1.002 1.002 0 00-.17-.015zM.988 19.002a1.002 1.002 0 00-.087.004 1.002 1.002 0 00-.166.03 1.002 1.002 0 00-.303.144 1.002 1.002 0 00-.064.05 1.002 1.002 0 00-.064.056 1.002 1.002 0 00-.057.06 1.002 1.002 0 00-.053.068 1.002 1.002 0 00-.049.069 1.002 1.002 0 00-.076.15 1.002 1.002 0 00-.06.243 1.002 1.002 0 00.011.333 1.002 1.002 0 00.344.567 1.002 1.002 0 00.068.05 1.002 1.002 0 00.224.116 1.002 1.002 0 00.075.027 1.002 1.002 0 00.087.019 1.002 1.002 0 00.083.011 1.002 1.002 0 00.087.004h5a1.002 1.002 0 00.17-.015 1.002 1.002 0 00.084-.02 1.002 1.002 0 00.23-.094 1.002 1.002 0 00.072-.045 1.002 1.002 0 00.065-.053 1.002 1.002 0 00.064-.057 1.002 1.002 0 00.057-.06 1.002 1.002 0 00.174-.284 1.002 1.002 0 00.049-.163 1.002 1.002 0 00-.019-.499 1.002 1.002 0 00-.026-.08 1.002 1.002 0 00-.122-.218 1.002 1.002 0 00-.052-.065 1.002 1.002 0 00-.061-.064 1.002 1.002 0 00-.06-.053 1.002 1.002 0 00-.137-.098 1.002 1.002 0 00-.4-.125A1.002 1.002 0 005.987 19H.992zm33.019 0a1.002 1.002 0 00-.167.015 1.002 1.002 0 00-.158.046 1.002 1.002 0 00-.076.034 1.002 1.002 0 00-.216.132 1.002 1.002 0 00-.219.254 1.002 1.002 0 00-.042.075 1.002 1.002 0 00-.098.318 1.002 1.002 0 00-.008.17 1.002 1.002 0 00.008.083 1.002 1.002 0 00.038.163 1.002 1.002 0 00.023.08 1.002 1.002 0 00.037.075 1.002 1.002 0 00.137.212 1.002 1.002 0 00.26.212 1.002 1.002 0 00.076.037 1.002 1.002 0 00.076.038 1.002 1.002 0 00.08.023 1.002 1.002 0 00.082.019 1.002 1.002 0 00.084.011 1.002 1.002 0 00.087.004h5.003a1.002 1.002 0 00.167-.015 1.002 1.002 0 00.083-.02 1.002 1.002 0 00.23-.094 1.002 1.002 0 00.14-.098 1.002 1.002 0 00.175-.182 1.002 1.002 0 00.087-.143 1.002 1.002 0 00.06-.155 1.002 1.002 0 00-.026-.662 1.002 1.002 0 00-.121-.22 1.002 1.002 0 00-.114-.128 1.002 1.002 0 00-.196-.151 1.002 1.002 0 00-.076-.038 1.002 1.002 0 00-.238-.076 1.002 1.002 0 00-.17-.019h-5zm-26.15 7.012a1.002 1.002 0 00-.163.015 1.002 1.002 0 00-.083.019 1.002 1.002 0 00-.238.095l-4.33 2.5a1.002 1.002 0 00-.073.045 1.002 1.002 0 00-.128.113 1.002 1.002 0 00-.106.125 1.002 1.002 0 00-.046.072 1.002 1.002 0 00-.075.151 1.002 1.002 0 00-.023.08 1.002 1.002 0 00-.034.166 1.002 1.002 0 00-.008.083 1.002 1.002 0 00.08.409 1.002 1.002 0 00.076.151 1.002 1.002 0 00.049.068 1.002 1.002 0 00.056.064 1.002 1.002 0 00.057.06 1.002 1.002 0 00.133.107 1.002 1.002 0 00.15.08 1.002 1.002 0 00.076.03 1.002 1.002 0 00.163.041 1.002 1.002 0 00.083.011 1.002 1.002 0 00.25-.011 1.002 1.002 0 00.163-.042 1.002 1.002 0 00.079-.034 1.002 1.002 0 00.076-.037l4.334-2.5a1.002 1.002 0 00.136-.099 1.002 1.002 0 00.06-.056 1.002 1.002 0 00.057-.065 1.002 1.002 0 00.053-.064 1.002 1.002 0 00.144-.303 1.002 1.002 0 00.019-.083 1.002 1.002 0 00.019-.25 1.002 1.002 0 00-.076-.328 1.002 1.002 0 00-.37-.447 1.002 1.002 0 00-.076-.041 1.002 1.002 0 00-.076-.038 1.002 1.002 0 00-.075-.03 1.002 1.002 0 00-.08-.027 1.002 1.002 0 00-.083-.015 1.002 1.002 0 00-.083-.011 1.002 1.002 0 00-.087 0zm24.3 0a1.002 1.002 0 00-.083 0 1.002 1.002 0 00-.083.011 1.002 1.002 0 00-.083.02 1.002 1.002 0 00-.076.022 1.002 1.002 0 00-.083.03 1.002 1.002 0 00-.148.083 1.002 1.002 0 00-.068.05 1.002 1.002 0 00-.125.113 1.002 1.002 0 00-.14.208 1.002 1.002 0 00-.037.076 1.002 1.002 0 00-.053.158 1.002 1.002 0 00-.027.254 1.002 1.002 0 00.02.163 1.002 1.002 0 00.018.083 1.002 1.002 0 00.027.08 1.002 1.002 0 00.034.079 1.002 1.002 0 00.136.211 1.002 1.002 0 00.057.06 1.002 1.002 0 00.124.114 1.002 1.002 0 00.072.046l4.335 2.5a1.002 1.002 0 00.15.071 1.002 1.002 0 00.25.053 1.002 1.002 0 00.167 0 1.002 1.002 0 00.083-.007 1.002 1.002 0 00.163-.042 1.002 1.002 0 00.227-.113 1.002 1.002 0 00.189-.163 1.002 1.002 0 00.056-.064 1.002 1.002 0 00.087-.144 1.002 1.002 0 00.069-.151 1.002 1.002 0 00.045-.25 1.002 1.002 0 000-.087 1.002 1.002 0 000-.083 1.002 1.002 0 00-.06-.242 1.002 1.002 0 00-.03-.08 1.002 1.002 0 00-.088-.143 1.002 1.002 0 00-.11-.129 1.002 1.002 0 00-.06-.06 1.002 1.002 0 00-.064-.05 1.002 1.002 0 00-.076-.049l-4.33-2.5a1.002 1.002 0 00-.152-.071 1.002 1.002 0 00-.08-.023 1.002 1.002 0 00-.166-.03 1.002 1.002 0 00-.087 0zM12.97 31.145a1.002 1.002 0 00-.083.008 1.002 1.002 0 00-.083.011 1.002 1.002 0 00-.083.019 1.002 1.002 0 00-.367.197 1.002 1.002 0 00-.064.056 1.002 1.002 0 00-.11.125 1.002 1.002 0 00-.046.072l-2.503 4.334a1.002 1.002 0 00-.095.235 1.002 1.002 0 00-.03.25 1.002 1.002 0 00.053.328 1.002 1.002 0 00.03.076 1.002 1.002 0 00.129.22 1.002 1.002 0 00.177.177 1.002 1.002 0 00.076.05 1.002 1.002 0 00.223.105 1.002 1.002 0 00.163.038 1.002 1.002 0 00.336-.008 1.002 1.002 0 00.163-.045 1.002 1.002 0 00.288-.17 1.002 1.002 0 00.174-.182 1.002 1.002 0 00.045-.072l2.504-4.334a1.002 1.002 0 00.068-.151 1.002 1.002 0 00.026-.08 1.002 1.002 0 00.015-.087 1.002 1.002 0 00.004-.332 1.002 1.002 0 00-.019-.084 1.002 1.002 0 00-.185-.374 1.002 1.002 0 00-.114-.125 1.002 1.002 0 00-.132-.098 1.002 1.002 0 00-.076-.042 1.002 1.002 0 00-.15-.068 1.002 1.002 0 00-.167-.038 1.002 1.002 0 00-.083-.007 1.002 1.002 0 00-.084 0zm14.07 0a1.002 1.002 0 00-.25.027 1.002 1.002 0 00-.162.052 1.002 1.002 0 00-.076.038 1.002 1.002 0 00-.14.087 1.002 1.002 0 00-.181.178 1.002 1.002 0 00-.2.454 1.002 1.002 0 00-.012.087 1.002 1.002 0 000 .083 1.002 1.002 0 00.011.166 1.002 1.002 0 00.042.163 1.002 1.002 0 00.068.151 1.002 1.002 0 000 .004l2.504 4.334a1.002 1.002 0 00.045.068 1.002 1.002 0 00.238.239 1.002 1.002 0 00.144.083 1.002 1.002 0 00.817.019 1.002 1.002 0 00.151-.076 1.002 1.002 0 00.068-.05 1.002 1.002 0 00.065-.052 1.002 1.002 0 00.06-.06 1.002 1.002 0 00.057-.061 1.002 1.002 0 00.05-.068 1.002 1.002 0 00.113-.227 1.002 1.002 0 00.022-.083 1.002 1.002 0 00.015-.08 1.002 1.002 0 00.016-.17 1.002 1.002 0 00-.016-.166 1.002 1.002 0 00-.041-.163 1.002 1.002 0 00-.034-.076 1.002 1.002 0 00-.038-.075l-2.5-4.338a1.002 1.002 0 00-.045-.068 1.002 1.002 0 00-.239-.238 1.002 1.002 0 00-.072-.046 1.002 1.002 0 00-.075-.038 1.002 1.002 0 00-.155-.056 1.002 1.002 0 00-.167-.038 1.002 1.002 0 00-.083 0zm-7.076 1.88a1.002 1.002 0 00-.48.143 1.002 1.002 0 00-.069.05 1.002 1.002 0 00-.128.11 1.002 1.002 0 00-.053.064 1.002 1.002 0 00-.053.064 1.002 1.002 0 00-.144.302 1.002 1.002 0 00-.034.254v5.003a1.002 1.002 0 00.004.084 1.002 1.002 0 00.011.083 1.002 1.002 0 00.076.238 1.002 1.002 0 00.038.076 1.002 1.002 0 00.098.14 1.002 1.002 0 00.057.064 1.002 1.002 0 00.268.196 1.002 1.002 0 00.076.035 1.002 1.002 0 00.083.026 1.002 1.002 0 00.08.023 1.002 1.002 0 00.253.019 1.002 1.002 0 00.73-.363 1.002 1.002 0 00.094-.137 1.002 1.002 0 00.133-.484v-5.003a1.002 1.002 0 000-.083 1.002 1.002 0 00-.015-.087 1.002 1.002 0 00-.02-.08 1.002 1.002 0 00-.14-.302 1.002 1.002 0 00-.052-.068 1.002 1.002 0 00-.057-.065 1.002 1.002 0 00-.125-.11 1.002 1.002 0 00-.143-.086 1.002 1.002 0 00-.239-.084 1.002 1.002 0 00-.083-.015 1.002 1.002 0 00-.166-.007z"/></svg>