<svg xmlns="http://www.w3.org/2000/svg" height="20" width="20"><path d="M5.506 6.6L1 10l4.504 3.4c1.199.88 2.814 1.372 4.496 1.371 1.682 0 3.296-.492 4.494-1.37L19 10l-4.504-3.4C13.297 5.72 11.711 5.228 10 5.237c-1.711.009-3.318.5-4.494 1.363zm4.152-.502c2.101 0 3.805 1.747 3.805 3.902 0 2.155-1.704 3.902-3.805 3.902-2.1 0-3.804-1.747-3.804-3.902 0-2.155 1.703-3.902 3.804-3.902zm-.894 2.035c-1.006 0-1.821.836-1.82 1.867-.001 1.031.814 1.868 1.82 1.867 1.004 0 1.818-.836 1.818-1.867 0-1.03-.814-1.867-1.818-1.867z" /></svg>